# AST/ASF file generated using VICON BodyLanguage
# -----------------------------------------------
:version 1.10
:name VICON
:units
  mass 1.0
  length 0.45
  angle deg
:documentation
   .ast/.asf automatically generated from VICON data using
   VICON BodyBuilder and BodyLanguage model FoxedUp or BRILLIANT.MOD
:root
   order TX TY TZ RX RY RZ
   axis XYZ
   position 0 0 0  
   orientation 0 0 0 
:bonedata
  begin
     id 1 
     name lhipjoint
     direction 0.610259 -0.730986 0.305356 
     length 2.50941 
     axis 0 0 0  XYZ
  end
  begin
     id 2 
     name lfemur
     direction 0.34202 -0.939693 0  
     length 7.48822  
     axis 0 0 20  XYZ
    dof rx ry rz
    limits (-160.0 20.0)
           (-70.0 70.0)
           (-60.0 70.0)
  end
  begin
     id 3 
     name ltibia
     direction 0.34202 -0.939693 0   
     length 7.60141   
     axis 0 0 20   XYZ
    dof rx
    limits (-10.0 170.0)
  end
  begin
     id 4 
     name lfoot
     direction 0.0673488 -0.185039 0.980421   
     length 2.04049   
     axis -90 7.62852e-016 20   XYZ
    dof rx rz
    limits (-45.0 90.0)
           (-70.0 20.0)
  end
  begin
     id 5 
     name ltoes
     direction 1.5356e-011 -4.21729e-011 1   
     length 1.02897   
     axis -90 7.62852e-016 20   XYZ
    dof rx
    limits (-90.0 20.0)
  end
  begin
     id 6 
     name rhipjoint
     direction -0.57612 -0.754205 0.315056   
     length 2.43216  
     axis 0 0 0  XYZ 
  end
  begin
     id 7 
     name rfemur
     direction -0.34202 -0.939693 0   
     length 7.42799   
     axis 0 0 -20   XYZ
    dof rx ry rz
    limits (-160.0 20.0)
           (-70.0 70.0)
           (-70.0 60.0)
  end
  begin
     id 8 
     name rtibia
     direction -0.34202 -0.939693 0   
     length 7.69484   
     axis 0 0 -20   XYZ
    dof rx
    limits (-10.0 170.0)
 end
 begin
     id 9 
     name rfoot
     direction -0.111837 -0.30727 0.945028   
     length 2.15769  
     axis -90 -7.62852e-016 -20   XYZ
    dof rx rz
    limits (-45.0 90.0)
           (-20.0 70.0)
  end
  begin
     id 10 
     name rtoes
     direction -1.53539e-011 -4.21878e-011 1   
     length 1.07391   
     axis -90 -7.62852e-016 -20   XYZ
    dof rx
    limits (-90.0 20.0)
  end
  begin
     id 11 
     name lowerback
     direction 0.00552624 0.990109 -0.140195   
     length 2.12403   
     axis 0 0 0   XYZ
    dof rx ry rz
    limits (-20.0 45.0)
           (-30.0 30.0)
           (-30.0 30.0)
  end
  begin
     id 12 
     name upperback
     direction 0.00361898 0.999976 -0.00584723   
     length 2.13232   
     axis 0 0 0   XYZ
    dof rx ry rz
    limits (-20.0 45.0)
           (-30.0 30.0)
           (-30.0 30.0)
  end
  begin
     id 13 
     name thorax
     direction -0.000331275 0.998253 0.0590847   
     length 2.17688   
     axis 0 0 0   XYZ
    dof rx ry rz
    limits (-20.0 45.0)
           (-30.0 30.0)
           (-30.0 30.0)
  end
  begin
     id 14 
     name lowerneck
     direction -0.0561561 0.979832 0.19177   
     length 1.64159   
     axis 0 0 0   XYZ
    dof rx ry rz
    limits (-20.0 45.0)
           (-30.0 30.0)
           (-30.0 30.0)
  end
  begin
     id 15 
     name upperneck
     direction 0.0827153 0.979385 -0.184293   
     length 1.68939   
     axis 0 0 0   XYZ
    dof rx ry rz
    limits (-20.0 45.0)
           (-30.0 30.0)
           (-30.0 30.0)
  end
  begin
     id 16
     name head
     direction 0.0278583 0.995936 -0.0856488  
     length 1.70207  
     axis 0 0 0   XYZ
    dof rx ry rz
    limits (-20.0 45.0)
           (-30.0 30.0)
           (-30.0 30.0)
  end
  begin
     id 17 
     name lclavicle
     direction 0.950993 0.301131 -0.0702275  
     length 3.41652  
     axis 0 0 0   XYZ
    dof ry rz
    limits (-20.0 10.0)
           (0.0 20.0)
  end
  begin
     id 18 
     name lhumerus
     direction 1 -4.48981e-011 -3.9662e-029   
     length 5.32955   
     axis 180 -30 -90   XYZ
    dof rx ry rz
    limits (-60.0 90.0)
           (-90.0 90.0)
           (-90.0 90.0)
  end
  begin
     id 19
     name lradius
     direction 1 -4.48925e-011 -9.0549e-027   
     length 3.69232   
     axis 180 -30 -90   XYZ
    dof rx
    limits (-10.0 170.0)
  end
  begin
     id 20
     name lwrist
     direction 1 -4.49007e-011 -1.49005e-026   
     length 1.84616   
     axis 9.0955e-015 90 90   XYZ
    dof ry
    limits (-180.0 0.0)
 end
  begin
     id 21 
     name lhand
     direction 1 -4.49016e-011 -2.98023e-026   
     length 0.536598   
     axis 1.90115e-014 90 90   XYZ
    dof rx rz
    limits (-90.0 90.0)
           (-45.0 45.0)
  end
  begin
     id 22 
     name lfingers
     direction 1 -4.48924e-011 -5.9578e-026   
     length 0.432619   
     axis 3.80223e-014 90 90   XYZ
    dof rx
    limits (0.0 90.0)
  end
  begin
     id 23
     name lthumb
     direction 0.707107 -6.34947e-011 0.707107   
     length 0.621157   
     axis -90 45 -3.84942e-014   XYZ
    dof rx rz
    limits (-45.0 45.0)
           (-45.0 45.0)
  end
  begin
     id 24 
     name rclavicle
     direction -0.955495 0.276497 -0.102848   
     length 3.36357  
     axis 0 0 0   XYZ 
    dof ry rz
    limits (-10.0 20.0)
           (-20.0 0.0)
  end
  begin
     id 25 
     name rhumerus
     direction -1 -4.48961e-011 3.30983e-027  
     length 5.23431   
     axis 180 30 90   XYZ
    dof rx ry rz
    limits (-90.0 60.0)
           (-90.0 90.0)
           (-90.0 90.0)
  end
  begin
     id 26 
     name rradius
     direction -1 -4.48965e-011 -6.63263e-027   
     length 3.55301   
     axis 180 30 90   XYZ
    dof rx
    limits (-10.0 170.0)
  end
  begin
     id 27 
     name rwrist
     direction -1 -4.48942e-011 -1.48958e-026   
     length 1.77651   
     axis 9.0955e-015 -90 -90   XYZ
    dof ry
    limits (-180.0 0.0)
  end
  begin
     id 28
     name rhand
     direction -1 -4.48977e-011 -2.97966e-026   
     length 0.772522   
     axis 1.90115e-014 -90 -90   XYZ
    dof rx rz
    limits (-90.0 90.0)
           (-45.0 45.0)
  end
  begin
     id 29
     name rfingers
     direction -1 -4.49135e-011 -5.96389e-026   
     length 0.622827   
     axis 3.80223e-014 -90 -90   XYZ
    dof rx
    limits (0.0 90.0)
  end
  begin
     id 30
     name rthumb
     direction -0.707107 -6.34969e-011 0.707107   
     length 0.894259   
     axis -90 -45 3.84942e-014   XYZ
    dof rx rz
    limits (-45.0 45.0)
           (-45.0 45.0)
  end
:hierarchy
  begin
    root lhipjoint rhipjoint lowerback
    lhipjoint lfemur
    lfemur ltibia
    ltibia lfoot
    lfoot ltoes
    rhipjoint rfemur
    rfemur rtibia
    rtibia rfoot
    rfoot rtoes
    lowerback upperback
    upperback thorax
    thorax lowerneck lclavicle rclavicle
    lowerneck upperneck
    upperneck head
    lclavicle lhumerus
    lhumerus lradius
    lradius lwrist
    lwrist lhand lthumb
    lhand lfingers
    rclavicle rhumerus
    rhumerus rradius
    rradius rwrist
    rwrist rhand rthumb
    rhand rfingers
  end

#!OML:ASF F:\VICON\USERDATA\INSTALL\rory3\rory3.ASF
:FULLY-SPECIFIED
:DEGREES
48
root -9.95161 18.0373 -10.2861 179.127 -2.12316 181.736
lowerback 11.6301 4.16797 4.4217
upperback 0.301896 6.04144 -0.172871
thorax -5.70791 2.81312 -3.61878
lowerneck -9.98599 -2.09569 -13.1043
upperneck 38.3801 -8.40291 8.83131
head 16.2994 -5.89171 4.39784
rclavicle -2.19284e-014 2.98177e-015
rhumerus -20.0089 -14.8731 -82.1544
rradius 37.7075
rwrist 3.73379
rhand -16.8279 5.95629
rfingers 7.12502
rthumb 9.40144 -23.814
lclavicle -2.19284e-014 2.98177e-015
lhumerus -38.9689 17.7208 71.6375
lradius 26.5823
lwrist -8.5852
lhand -17.8139 26.4037
lfingers 7.12502
lthumb 8.44992 56.2146
rfemur 11.0559 -1.20502 25.0296
rtibia 24.8818
rfoot -3.977 4.76371
rtoes -10.024
lfemur -17.882 -3.1122 -18.0543
ltibia 13.1083
lfoot 13.1789 -13.2803
ltoes -7.0857
49
root -9.93807 18.041 -10.1336 179.029 -1.96139 182.006
lowerback 11.7267 4.15372 4.70402
upperback 0.414096 6.05974 -0.034593
thorax -5.62731 2.81624 -3.63455
lowerneck -10.0646 -2.23677 -12.9942
upperneck 38.2711 -8.46134 8.52386
head 16.2486 -5.91372 4.22593
rclavicle -5.94615e-014 5.26779e-015
rhumerus -19.9324 -14.651 -82.1865
rradius 37.7083
rwrist 3.65924
rhand -16.8004 5.87396
rfingers 7.12502
rthumb 9.42791 -23.8952
lclavicle -5.94615e-014 5.26779e-015
lhumerus -38.4269 18.1978 71.9416
lradius 26.1127
lwrist -9.35823
lhand -17.8352 26.6321
lfingers 7.12502
lthumb 8.42939 56.4439
rfemur 10.8518 -0.98657 25.3937
rtibia 24.5678
rfoot -4.54145 4.73457
rtoes -10.3285
lfemur -17.6101 -3.5326 -17.4236
ltibia 11.8919
lfoot 13.4054 -11.8239
ltoes -3.03157
50
root -9.91875 18.0429 -9.98779 179.007 -1.82494 182.098
lowerback 11.7225 4.16507 4.75662
upperback 0.491553 6.07783 0.0417049
thorax -5.54414 2.82642 -3.58145
lowerneck -10.0312 -2.38898 -13.0593
upperneck 38.1106 -8.62092 8.47318
head 16.1852 -5.98006 4.18457
rclavicle 2.51463e-014 -5.56597e-015
rhumerus -19.9431 -14.6076 -82.214
rradius 37.6824
rwrist 3.90699
rhand -16.7869 5.67028
rfingers 7.12502
rthumb 9.44099 -24.0983
lclavicle 2.51463e-014 -5.56597e-015
lhumerus -37.8728 18.6609 72.1922
lradius 25.6031
lwrist -10.295
lhand -17.6433 27.1447
lfingers 7.12502
lthumb 8.61459 56.9489
rfemur 10.5323 -0.616075 25.6395
rtibia 24.3636
rfoot -5.03443 4.59999
rtoes -10.323
lfemur -17.3945 -3.8866 -16.9793
ltibia 10.7432
lfoot 13.3325 -10.7889
ltoes -6.98373
51
root -9.90177 18.0417 -9.84431 179.054 -1.67643 182.223
lowerback 11.7559 4.17148 4.86159
upperback 0.438285 6.10772 0.0807865
thorax -5.61011 2.83583 -3.60883
lowerneck -9.96484 -2.53232 -13.076
upperneck 38.1247 -8.89338 8.45389
head 16.2226 -6.1097 4.12929
rclavicle 3.58558e-014 -1.14301e-014
rhumerus -20.1163 -14.6464 -82.2037
rradius 37.5451
rwrist 4.23073
rhand -16.7133 5.88777
rfingers 7.12502
rthumb 9.51193 -23.8775
lclavicle 3.58558e-014 -1.14301e-014
lhumerus -37.595 18.8666 72.4179
lradius 25.358
lwrist -11.0288
lhand -17.5722 27.3516
lfingers 7.12502
lthumb 8.68316 57.153
rfemur 10.1505 -0.411363 25.8604
rtibia 24.1838
rfoot -5.57846 4.57929
rtoes -10.948
lfemur -17.3009 -3.76778 -16.6389
ltibia 9.89089
lfoot 12.9981 -10.1506
ltoes -11.5451
52
root -9.88737 18.0425 -9.70327 179.053 -1.55148 182.449
lowerback 11.8174 4.12728 5.03965
upperback 0.38575 6.08252 0.153331
thorax -5.69223 2.8151 -3.63603
lowerneck -9.97584 -2.74035 -13.0506
upperneck 38.2334 -9.28073 8.35174
head 16.3407 -6.29801 4.00624
rclavicle -2.55687e-014 3.8763e-015
rhumerus -20.3226 -14.5283 -82.2529
rradius 37.4141
rwrist 4.22397
rhand -16.5673 6.06444
rfingers 7.12502
rthumb 9.65281 -23.6944
lclavicle -2.55687e-014 3.8763e-015
lhumerus -37.48 18.7044 72.7668
lradius 25.4123
lwrist -11.2016
lhand -17.7367 27.0904
lfingers 7.12502
lthumb 8.52439 56.8983
rfemur 9.80767 -0.302112 26.1679
rtibia 23.99
rfoot -6.04641 4.51742
rtoes -11.4282
lfemur -17.3015 -3.68176 -16.2178
ltibia 9.50843
lfoot 11.952 -9.41685
ltoes -10.6205
53
root -9.87113 18.0433 -9.56903 179.01 -1.48728 182.609
lowerback 11.6787 4.06744 5.09366
upperback 0.522866 5.9945 0.251882
thorax -5.48254 2.77847 -3.52983
lowerneck -10.1528 -3.06762 -13.2366
upperneck 38.2867 -9.80046 8.3884
head 16.5188 -6.53663 3.95465
rclavicle 2.6252e-014 -3.18055e-015
rhumerus -20.3431 -14.285 -82.3407
rradius 37.3823
rwrist 4.11058
rhand -16.4533 5.94424
rfingers 7.12502
rthumb 9.76279 -23.8095
lclavicle 2.6252e-014 -3.18055e-015
lhumerus -37.1206 18.8355 73.1762
lradius 25.4139
lwrist -11.4979
lhand -17.6561 26.4982
lfingers 7.12502
lthumb 8.60219 56.3029
rfemur 9.55602 -0.238465 26.4148
rtibia 23.7666
rfoot -6.47222 4.3706
rtoes -11.5734
lfemur -17.4947 -3.66237 -15.8799
ltibia 9.85343
lfoot 9.60979 -9.78903
ltoes -12.2522
54
root -9.85441 18.0538 -9.43719 179.01 -1.52932 182.705
lowerback 11.4192 3.95483 5.04562
upperback 0.672501 5.8164 0.358542
thorax -5.21155 2.70289 -3.33624
lowerneck -10.0364 -3.38352 -13.4997
upperneck 38.1257 -10.3207 8.51106
head 16.5232 -6.77609 3.95795
rclavicle 3.29361e-014 2.00773e-014
rhumerus -20.4022 -13.9654 -82.4252
rradius 37.3712
rwrist 4.08829
rhand -16.3503 5.94891
rfingers 7.12502
rthumb 9.86222 -23.8001
lclavicle 3.29361e-014 2.00773e-014
lhumerus -36.7723 19.3025 73.5018
lradius 25.3956
lwrist -11.9588
lhand -17.657 26.1795
lfingers 7.12502
lthumb 8.6014 55.9843
rfemur 9.24035 -0.336795 26.5726
rtibia 23.5576
rfoot -6.82112 4.24017
rtoes -10.8583
lfemur -17.8023 -3.74655 -15.6082
ltibia 10.5139
lfoot 6.75181 -10.2747
ltoes -16.8545
55
root -9.83962 18.0722 -9.30451 178.931 -1.67904 182.649
lowerback 11.4766 3.77582 4.86931
upperback 0.611533 5.56665 0.391752
thorax -5.35025 2.5797 -3.1777
lowerneck -9.5106 -3.54795 -13.6188
upperneck 37.9466 -10.791 8.68573
head 16.401 -7.00606 3.97573
rclavicle -3.57812e-014 -2.48481e-015
rhumerus -20.8764 -13.7608 -82.5072
rradius 37.365
rwrist 4.2707
rhand -16.4779 5.94385
rfingers 7.12502
rthumb 9.73913 -23.811
lclavicle -3.57812e-014 -2.48481e-015
lhumerus -36.9026 19.2963 73.7791
lradius 25.6234
lwrist -11.9793
lhand -17.6635 26.1586
lfingers 7.12502
lthumb 8.59506 55.9636
rfemur 8.9925 -0.589071 26.5488
rtibia 23.3839
rfoot -7.05244 4.0937
rtoes -10.8324
lfemur -17.75 -3.73538 -15.6021
ltibia 11.3681
lfoot 4.25062 -10.1663
ltoes -17.556
56
root -9.82684 18.0821 -9.17414 178.799 -1.81878 182.418
lowerback 11.7137 3.59982 4.52005
upperback 0.490781 5.31022 0.380426
thorax -5.66282 2.452 -2.98468
lowerneck -9.09184 -3.69576 -13.6817
upperneck 37.9624 -11.3019 8.81595
head 16.4101 -7.26736 3.95397
rclavicle -1.96673e-014 1.25234e-014
rhumerus -21.4351 -13.5014 -82.5416
rradius 37.3716
rwrist 4.35821
rhand -16.3556 5.67991
rfingers 7.12502
rthumb 9.85711 -24.0694
lclavicle -1.96673e-014 1.25234e-014
lhumerus -37.2595 18.9139 74.1314
lradius 26.0702
lwrist -11.6049
lhand -17.5929 26.0958
lfingers 7.12502
lthumb 8.66319 55.8981
rfemur 8.81297 -0.748649 26.3487
rtibia 23.2512
rfoot -7.17669 3.87695
rtoes -10.8933
lfemur -17.8035 -3.85574 -15.7819
ltibia 12.4063
lfoot 2.5718 -9.74014
ltoes -14.748
57
root -9.81427 18.0916 -9.04911 178.688 -1.95421 182.31
lowerback 11.7525 3.44624 4.29971
upperback 0.504366 5.08033 0.426759
thorax -5.71148 2.34355 -2.78228
lowerneck -8.86606 -3.96538 -13.8035
upperneck 37.9677 -11.9102 8.89385
head 16.4827 -7.56289 3.89607
rclavicle 8.27441e-014 -4.57205e-015
rhumerus -21.6847 -13.3117 -82.5297
rradius 37.1448
rwrist 4.43968
rhand -16.2345 5.65991
rfingers 7.12502
rthumb 9.9739 -24.0838
lclavicle 8.27441e-014 -4.57205e-015
lhumerus -37.3062 18.4512 74.7235
lradius 26.4871
lwrist -10.9971
lhand -17.4144 26.0406
lfingers 7.12502
lthumb 8.83544 55.8356
rfemur 8.57737 -0.769702 26.3246
rtibia 23.1984
rfoot -7.24357 3.5451
rtoes -9.00089
lfemur -17.918 -4.02944 -15.815
ltibia 13.5668
lfoot 0.777482 -9.56692
ltoes -15.2728
58
root -9.80209 18.107 -8.92759 178.595 -2.07707 182.372
lowerback 11.6774 3.27604 4.22674
upperback 0.550739 4.84154 0.522555
thorax -5.65239 2.23036 -2.59818
lowerneck -8.54879 -4.23337 -13.9308
upperneck 37.8824 -12.514 8.98679
head 16.4872 -7.85385 3.84885
rclavicle 2.4699e-014 -7.95139e-015
rhumerus -21.9277 -13.1672 -82.5273
rradius 36.8651
rwrist 4.4468
rhand -16.131 5.78017
rfingers 7.12502
rthumb 10.0738 -23.9587
lclavicle 2.4699e-014 -7.95139e-015
lhumerus -37.2072 18.1475 75.2942
lradius 26.7442
lwrist -10.4194
lhand -17.5664 25.916
lfingers 7.12502
lthumb 8.68879 55.7172
rfemur 8.22658 -0.860428 26.4598
rtibia 23.241
rfoot -7.3457 3.24477
rtoes -7.03592
lfemur -17.9303 -4.36274 -15.6296
ltibia 14.7116
lfoot -0.550858 -8.69036
ltoes -15.8216
59
root -9.79406 18.1211 -8.80353 178.535 -2.20939 182.257
lowerback 11.7347 3.0831 4.01267
upperback 0.474545 4.56681 0.517897
thorax -5.80083 2.09765 -2.44972
lowerneck -8.00156 -4.49 -13.882
upperneck 37.7152 -13.1279 8.955
head 16.366 -8.15098 3.72107
rclavicle -1.9133e-015 1.0138e-014
rhumerus -22.4095 -13.2954 -82.5638
rradius 36.6281
rwrist 4.49932
rhand -15.9002 5.91529
rfingers 7.12502
rthumb 10.2965 -23.8127
lclavicle -1.9133e-015 1.0138e-014
lhumerus -37.2842 17.9854 75.622
lradius 26.8893
lwrist -9.98157
lhand -17.8417 25.911
lfingers 7.12502
lthumb 8.4231 55.723
rfemur 7.84445 -1.00695 26.3688
rtibia 23.279
rfoot -7.4238 3.05993
rtoes -7.154
lfemur -17.9933 -4.70004 -15.6794
ltibia 16.0704
lfoot -1.33851 -7.52196
ltoes -17.1105
60
root -9.79074 18.135 -8.68321 178.515 -2.31298 182.061
lowerback 11.7932 2.90029 3.78953
upperback 0.371397 4.30365 0.456301
thorax -5.972 1.97091 -2.3573
lowerneck -7.55014 -4.78631 -13.8406
upperneck 37.6022 -13.8313 8.96409
head 16.3187 -8.48313 3.59345
rclavicle -2.08972e-014 2.38542e-015
rhumerus -22.9562 -13.487 -82.5719
rradius 36.3817
rwrist 4.53323
rhand -15.6394 6.01892
rfingers 7.12502
rthumb 10.548 -23.6964
lclavicle -2.08972e-014 2.38542e-015
lhumerus -37.3681 17.7772 75.9293
lradius 27.0589
lwrist -9.53819
lhand -17.7274 25.8501
lfingers 7.12502
lthumb 8.53337 55.6577
rfemur 7.44563 -1.11732 26.1739
rtibia 23.32
rfoot -7.49929 2.91498
rtoes -7.90018
lfemur -18.0997 -5.02745 -15.8264
ltibia 17.6295
lfoot -1.7965 -6.554
ltoes -17.8766
